<svg width="24" height="24" viewBox="0 0 24 24" fill="none" xmlns="http://www.w3.org/2000/svg">
<path d="M11 6.001C13.1217 6.001 15.1566 6.84385 16.6569 8.34415C18.1571 9.84444 19 11.8793 19 14.001C19 16.1227 18.1571 18.1576 16.6569 19.6579C15.1566 21.1581 13.1217 22.001 11 22.001C8.87827 22.001 6.84344 21.1581 5.34315 19.6579C3.84285 18.1576 3 16.1227 3 14.001C3 11.8793 3.84285 9.84444 5.34315 8.34415C6.84344 6.84385 8.87827 6.001 11 6.001ZM11 9.501L9.678 12.181L6.72 12.611L8.86 14.696L8.355 17.642L11 16.251L13.645 17.641L13.14 14.696L15.28 12.61L12.322 12.18L11 9.501ZM12 1L17 1.001V4.001L15.637 5.139C14.5059 4.54593 13.271 4.17652 12 4.051V1ZM10 1V4.05C8.72935 4.17565 7.49482 4.54505 6.364 5.138L5 4.001V1.001L10 1Z" fill="black"/>
</svg>
