<svg width="24" height="24" viewBox="0 0 24 24" fill="none" xmlns="http://www.w3.org/2000/svg">
<path fill-rule="evenodd" clip-rule="evenodd" d="M11.75 2C11.9489 2 12.1397 2.07902 12.2803 2.21967C12.421 2.36032 12.5 2.55109 12.5 2.75V4.75C12.5 4.94891 12.421 5.13968 12.2803 5.28033C12.1397 5.42098 11.9489 5.5 11.75 5.5C11.5511 5.5 11.3603 5.42098 11.2197 5.28033C11.079 5.13968 11 4.94891 11 4.75V2.75C11 2.55109 11.079 2.36032 11.2197 2.21967C11.3603 2.07902 11.5511 2 11.75 2ZM5.22 6.22C5.36063 6.07955 5.55125 6.00066 5.75 6.00066C5.94875 6.00066 6.13937 6.07955 6.28 6.22L6.624 6.563C6.76055 6.70452 6.83606 6.894 6.83426 7.09065C6.83246 7.2873 6.75349 7.47537 6.61437 7.61436C6.47525 7.75335 6.2871 7.83214 6.09045 7.83376C5.8938 7.83537 5.70439 7.75969 5.563 7.623L5.22 7.28C5.07955 7.13937 5.00066 6.94875 5.00066 6.75C5.00066 6.55125 5.07955 6.36063 5.22 6.22ZM18.28 6.22C18.4205 6.36063 18.4993 6.55125 18.4993 6.75C18.4993 6.94875 18.4205 7.13937 18.28 7.28L17.937 7.624C17.7955 7.76055 17.606 7.83606 17.4093 7.83426C17.2127 7.83246 17.0246 7.75349 16.8856 7.61437C16.7466 7.47525 16.6679 7.2871 16.6662 7.09045C16.6646 6.8938 16.7403 6.70439 16.877 6.563L17.22 6.22C17.3606 6.07955 17.5512 6.00066 17.75 6.00066C17.9488 6.00066 18.1394 6.07955 18.28 6.22ZM1 12.75C1 12.5511 1.07902 12.3603 1.21967 12.2197C1.36032 12.079 1.55109 12 1.75 12H3.75C3.94891 12 4.13968 12.079 4.28033 12.2197C4.42098 12.3603 4.5 12.5511 4.5 12.75C4.5 12.9489 4.42098 13.1397 4.28033 13.2803C4.13968 13.421 3.94891 13.5 3.75 13.5H1.75C1.55109 13.5 1.36032 13.421 1.21967 13.2803C1.07902 13.1397 1 12.9489 1 12.75ZM19 12.75C19 12.5511 19.079 12.3603 19.2197 12.2197C19.3603 12.079 19.5511 12 19.75 12H21.75C21.9489 12 22.1397 12.079 22.2803 12.2197C22.421 12.3603 22.5 12.5511 22.5 12.75C22.5 12.9489 22.421 13.1397 22.2803 13.2803C22.1397 13.421 21.9489 13.5 21.75 13.5H19.75C19.5511 13.5 19.3603 13.421 19.2197 13.2803C19.079 13.1397 19 12.9489 19 12.75ZM6.623 17.877C6.76345 18.0176 6.84234 18.2082 6.84234 18.407C6.84234 18.6058 6.76345 18.7964 6.623 18.937L6.28 19.28C6.13783 19.4125 5.94978 19.4846 5.75548 19.4812C5.56118 19.4777 5.37579 19.399 5.23838 19.2616C5.10097 19.1242 5.02225 18.9388 5.01883 18.7445C5.0154 18.5502 5.08752 18.3622 5.22 18.22L5.563 17.877C5.70363 17.7366 5.89425 17.6577 6.093 17.6577C6.29175 17.6577 6.48237 17.7366 6.623 17.877ZM16.877 17.877C17.0176 17.7366 17.2082 17.6577 17.407 17.6577C17.6058 17.6577 17.7964 17.7366 17.937 17.877L18.28 18.22C18.3537 18.2887 18.4128 18.3715 18.4538 18.4635C18.4948 18.5555 18.5168 18.6548 18.5186 18.7555C18.5204 18.8562 18.5018 18.9562 18.4641 19.0496C18.4264 19.143 18.3703 19.2278 18.299 19.299C18.2278 19.3703 18.143 19.4264 18.0496 19.4641C17.9562 19.5018 17.8562 19.5204 17.7555 19.5186C17.6548 19.5168 17.5555 19.4948 17.4635 19.4538C17.3715 19.4128 17.2887 19.3537 17.22 19.28L16.877 18.937C16.7366 18.7964 16.6577 18.6058 16.6577 18.407C16.6577 18.2082 16.7366 18.0176 16.877 17.877ZM11.75 20C11.9489 20 12.1397 20.079 12.2803 20.2197C12.421 20.3603 12.5 20.5511 12.5 20.75V22.75C12.5 22.9489 12.421 23.1397 12.2803 23.2803C12.1397 23.421 11.9489 23.5 11.75 23.5C11.5511 23.5 11.3603 23.421 11.2197 23.2803C11.079 23.1397 11 22.9489 11 22.75V20.75C11 20.5511 11.079 20.3603 11.2197 20.2197C11.3603 20.079 11.5511 20 11.75 20Z" fill="black"/>
<path d="M6.75 11.81C6.75 14.352 8.76 15.707 10.23 16.92C10.75 17.347 11.25 17.75 11.75 17.75C12.25 17.75 12.75 17.347 13.27 16.92C14.74 15.707 16.75 14.352 16.75 11.81C16.75 9.26698 14 7.46398 11.75 9.90798C9.5 7.46398 6.75 9.26798 6.75 11.81Z" fill="black"/>
</svg>
