<svg width="81" height="31" viewBox="0 0 81 31" fill="none" xmlns="http://www.w3.org/2000/svg">
<rect width="30" height="28.08" rx="10" fill="#1C1C1C"/>
<path d="M0 1.4587V30.0857H28.5455C29.3491 30.0857 30 29.4329 30 28.627V1.4587C30 0.652768 29.3491 0 28.5455 0H1.45455C0.650909 0 0 0.652768 0 1.4587ZM24 9.02571V18.0514L21 21.06H18V24.0685H12V21.06H9L6 18.0514V6.01714H9L12 9.02571H18L21 6.01714H24V9.02571Z" fill="#D21920"/>
<path d="M44.818 6.96C45.3873 7.08133 45.8447 7.366 46.19 7.814C46.5353 8.25267 46.708 8.75667 46.708 9.326C46.708 10.1473 46.4187 10.8007 45.84 11.286C45.2707 11.762 44.4727 12 43.446 12H38.868V2.172H43.292C44.2907 2.172 45.07 2.40067 45.63 2.858C46.1993 3.31533 46.484 3.936 46.484 4.72C46.484 5.29867 46.33 5.77933 46.022 6.162C45.7233 6.54467 45.322 6.81067 44.818 6.96ZM41.262 6.148H42.83C43.222 6.148 43.5207 6.064 43.726 5.896C43.9407 5.71867 44.048 5.462 44.048 5.126C44.048 4.79 43.9407 4.53333 43.726 4.356C43.5207 4.17867 43.222 4.09 42.83 4.09H41.262V6.148ZM43.026 10.068C43.4273 10.068 43.7353 9.97933 43.95 9.802C44.174 9.61533 44.286 9.34933 44.286 9.004C44.286 8.65867 44.1693 8.388 43.936 8.192C43.712 7.996 43.3993 7.898 42.998 7.898H41.262V10.068H43.026ZM47.6205 8.08C47.6205 7.27733 47.7698 6.57267 48.0685 5.966C48.3765 5.35933 48.7918 4.89267 49.3145 4.566C49.8372 4.23933 50.4205 4.076 51.0645 4.076C51.6152 4.076 52.0958 4.188 52.5065 4.412C52.9265 4.636 53.2485 4.93 53.4725 5.294V4.188H55.8665V12H53.4725V10.894C53.2392 11.258 52.9125 11.552 52.4925 11.776C52.0818 12 51.6012 12.112 51.0505 12.112C50.4158 12.112 49.8372 11.9487 49.3145 11.622C48.7918 11.286 48.3765 10.8147 48.0685 10.208C47.7698 9.592 47.6205 8.88267 47.6205 8.08ZM53.4725 8.094C53.4725 7.49667 53.3045 7.02533 52.9685 6.68C52.6418 6.33467 52.2405 6.162 51.7645 6.162C51.2885 6.162 50.8825 6.33467 50.5465 6.68C50.2198 7.016 50.0565 7.48267 50.0565 8.08C50.0565 8.67733 50.2198 9.15333 50.5465 9.508C50.8825 9.85333 51.2885 10.026 51.7645 10.026C52.2405 10.026 52.6418 9.85333 52.9685 9.508C53.3045 9.16267 53.4725 8.69133 53.4725 8.094ZM59.9925 1.64V12H57.5985V1.64H59.9925ZM64.9054 12.112C64.224 12.112 63.6174 11.9953 63.0854 11.762C62.5534 11.5287 62.1334 11.2113 61.8254 10.81C61.5174 10.3993 61.3447 9.942 61.3074 9.438H63.6734C63.7014 9.70867 63.8274 9.928 64.0514 10.096C64.2754 10.264 64.5507 10.348 64.8774 10.348C65.176 10.348 65.4047 10.292 65.5634 10.18C65.7314 10.0587 65.8154 9.90467 65.8154 9.718C65.8154 9.494 65.6987 9.33067 65.4654 9.228C65.232 9.116 64.854 8.99467 64.3314 8.864C63.7714 8.73333 63.3047 8.598 62.9314 8.458C62.558 8.30867 62.236 8.08 61.9654 7.772C61.6947 7.45467 61.5594 7.03 61.5594 6.498C61.5594 6.05 61.6807 5.644 61.9234 5.28C62.1754 4.90667 62.5394 4.61267 63.0154 4.398C63.5007 4.18333 64.0747 4.076 64.7374 4.076C65.7174 4.076 66.4874 4.31867 67.0474 4.804C67.6167 5.28933 67.9434 5.93333 68.0274 6.736H65.8154C65.778 6.46533 65.6567 6.25067 65.4514 6.092C65.2554 5.93333 64.994 5.854 64.6674 5.854C64.3874 5.854 64.1727 5.91 64.0234 6.022C63.874 6.12467 63.7994 6.26933 63.7994 6.456C63.7994 6.68 63.916 6.848 64.1494 6.96C64.392 7.072 64.7654 7.184 65.2694 7.296C65.848 7.44533 66.3194 7.59467 66.6834 7.744C67.0474 7.884 67.3647 8.11733 67.6354 8.444C67.9154 8.76133 68.06 9.19067 68.0694 9.732C68.0694 10.1893 67.9387 10.6 67.6774 10.964C67.4254 11.3187 67.0567 11.5987 66.5714 11.804C66.0954 12.0093 65.54 12.112 64.9054 12.112ZM69.058 8.08C69.058 7.27733 69.2073 6.57267 69.506 5.966C69.814 5.35933 70.2293 4.89267 70.752 4.566C71.2747 4.23933 71.858 4.076 72.502 4.076C73.0527 4.076 73.5333 4.188 73.944 4.412C74.364 4.636 74.686 4.93 74.91 5.294V4.188H77.304V12H74.91V10.894C74.6767 11.258 74.35 11.552 73.93 11.776C73.5193 12 73.0387 12.112 72.488 12.112C71.8533 12.112 71.2747 11.9487 70.752 11.622C70.2293 11.286 69.814 10.8147 69.506 10.208C69.2073 9.592 69.058 8.88267 69.058 8.08ZM74.91 8.094C74.91 7.49667 74.742 7.02533 74.406 6.68C74.0793 6.33467 73.678 6.162 73.202 6.162C72.726 6.162 72.32 6.33467 71.984 6.68C71.6573 7.016 71.494 7.48267 71.494 8.08C71.494 8.67733 71.6573 9.15333 71.984 9.508C72.32 9.85333 72.726 10.026 73.202 10.026C73.678 10.026 74.0793 9.85333 74.406 9.508C74.742 9.16267 74.91 8.69133 74.91 8.094ZM38.462 22.072C38.462 21.1013 38.672 20.238 39.092 19.482C39.512 18.7167 40.0953 18.124 40.842 17.704C41.598 17.2747 42.452 17.06 43.404 17.06C44.5707 17.06 45.5693 17.368 46.4 17.984C47.2307 18.6 47.786 19.44 48.066 20.504H45.434C45.238 20.0933 44.958 19.7807 44.594 19.566C44.2393 19.3513 43.8333 19.244 43.376 19.244C42.6387 19.244 42.0413 19.5007 41.584 20.014C41.1267 20.5273 40.898 21.2133 40.898 22.072C40.898 22.9307 41.1267 23.6167 41.584 24.13C42.0413 24.6433 42.6387 24.9 43.376 24.9C43.8333 24.9 44.2393 24.7927 44.594 24.578C44.958 24.3633 45.238 24.0507 45.434 23.64H48.066C47.786 24.704 47.2307 25.544 46.4 26.16C45.5693 26.7667 44.5707 27.07 43.404 27.07C42.452 27.07 41.598 26.86 40.842 26.44C40.0953 26.0107 39.512 25.418 39.092 24.662C38.672 23.906 38.462 23.0427 38.462 22.072ZM49.0561 23.08C49.0561 22.2773 49.2054 21.5727 49.5041 20.966C49.8121 20.3593 50.2274 19.8927 50.7501 19.566C51.2727 19.2393 51.8561 19.076 52.5001 19.076C53.0507 19.076 53.5314 19.188 53.9421 19.412C54.3621 19.636 54.6841 19.93 54.9081 20.294V19.188H57.3021V27H54.9081V25.894C54.6747 26.258 54.3481 26.552 53.9281 26.776C53.5174 27 53.0367 27.112 52.4861 27.112C51.8514 27.112 51.2727 26.9487 50.7501 26.622C50.2274 26.286 49.8121 25.8147 49.5041 25.208C49.2054 24.592 49.0561 23.8827 49.0561 23.08ZM54.9081 23.094C54.9081 22.4967 54.7401 22.0253 54.4041 21.68C54.0774 21.3347 53.6761 21.162 53.2001 21.162C52.7241 21.162 52.3181 21.3347 51.9821 21.68C51.6554 22.016 51.4921 22.4827 51.4921 23.08C51.4921 23.6773 51.6554 24.1533 51.9821 24.508C52.3181 24.8533 52.7241 25.026 53.2001 25.026C53.6761 25.026 54.0774 24.8533 54.4041 24.508C54.7401 24.1627 54.9081 23.6913 54.9081 23.094ZM61.428 20.49C61.708 20.0607 62.058 19.7247 62.478 19.482C62.898 19.23 63.3647 19.104 63.878 19.104V21.638H63.22C62.6227 21.638 62.1747 21.7687 61.876 22.03C61.5773 22.282 61.428 22.73 61.428 23.374V27H59.034V19.188H61.428V20.49Z" fill="white"/>
</svg>
